<?xml version="1.0" encoding="UTF-8"?>
<!DOCTYPE svg PUBLIC "-//W3C//DTD SVG 1.1//EN" "http://www.w3.org/Graphics/SVG/1.1/DTD/svg11.dtd">
<!-- Creator: CorelDRAW 2019 (64-Bit) -->
<svg xmlns="http://www.w3.org/2000/svg" xml:space="preserve" width="5.51181in" height="5.51181in" version="1.1" style="shape-rendering:geometricPrecision; text-rendering:geometricPrecision; image-rendering:optimizeQuality; fill-rule:evenodd; clip-rule:evenodd"
viewBox="0 0 4739.66 4739.66"
 xmlns:xlink="http://www.w3.org/1999/xlink"
 xmlns:xodm="http://www.corel.com/coreldraw/odm/2003">
 <defs>
  <style type="text/css">
   <![CDATA[
    .fil0 {fill:#66FFCC}
   ]]>
  </style>
 </defs>
 <g id="Layer_x0020_1">
  <metadata id="CorelCorpID_0Corel-Layer"/>
  <path class="fil0" d="M338.55 338.55l338.55 0 0 1354.19 1354.19 0 0 338.55 -1692.74 0 0 -1692.74zm2369.83 0l1692.74 0 0 1354.19 0 338.55 -1692.74 0 0 -1692.74zm338.55 338.55l0 1015.64 1015.64 0 0 -1015.64 -1015.64 0zm-338.55 2031.28l1692.74 0 0 1354.19 0 338.55 -1692.74 0 0 -1692.74zm338.55 338.55l0 1015.64 1015.64 0 0 -1015.64 -1015.64 0zm-2708.38 -338.55l1692.74 0 -0.01 338.56 -1354.17 -0.01 0 1015.64 1015.64 0 0 -338.53 -338.56 0 -338.55 -338.55 1015.64 0 0.01 677.08 0 338.55 -1692.74 0 0 -1692.74zm-338.55 -2708.38l4739.66 0 0 4739.66 -4739.66 0 0 -4739.66z"/>
 </g>
</svg>
